#!OML:ASF E:\emotionWalksFemale\Project 1\Capture day 1\Session 1\Female1.ASF
:FULLY-SPECIFIED
:DEGREES
781
root 9.47333 14.7913 -7.87374 -180.412 0.886286 -172.02
lowerback 9.1999 1.51582 2.83152
upperback -2.11539 2.21269 -4.54897
thorax -7.12969 0.921681 -6.78871
lowerneck -13.7947 -2.0639 -9.00326
upperneck 14.1574 -4.21566 15.9264
head 7.13377 -1.41951 6.31427
rclavicle 1.16538e-014 3.18055e-015
rhumerus -37.1779 50.5103 -126.185
rradius 52.6473
rwrist 16.5219
rhand 8.29884 -53.0259
rfingers 7.12502
rthumb 33.5111 -439.917
lclavicle 1.16538e-014 3.18055e-015
lhumerus -58.7386 -64.5958 147.07
lradius 104.214
lwrist 32.8424
lhand 16.8154 -26.0322
lfingers 7.12502
lthumb 41.5576 -1.29565
rfemur 11.759 4.3622 39.9569
rtibia 19.9388
rfoot -19.1965 -11.7106
rtoes 6.62738
lfemur -42.2636 -26.1407 -0.5546
ltibia 28.7382
lfoot -23.4159 26.1112
ltoes -15.5899
782
root 9.46531 14.7883 -8.0232 -180.443 1.23864 -172.469
lowerback 9.21441 1.66159 2.3355
upperback -2.12931 2.35785 -4.63767
thorax -7.14765 1.01803 -6.6222
lowerneck -13.6421 -2.06664 -9.23013
upperneck 13.7417 -4.1445 16.0932
head 6.97289 -1.3941 6.40747
rclavicle -4.89756e-014 7.95139e-014
rhumerus -37.0488 50.5671 -126.058
rradius 52.696
rwrist 16.6618
rhand 8.23606 -53.1631
rfingers 7.12502
rthumb 33.4514 -440.067
lclavicle -4.89756e-014 7.95139e-014
lhumerus -58.9126 -64.8197 147.289
lradius 104.212
lwrist 32.9503
lhand 16.5465 -25.9175
lfingers 7.12502
lthumb 41.3053 -1.09889
rfemur 12.8076 4.52276 39.4691
rtibia 19.2625
rfoot -18.805 -11.2565
rtoes 6.05271
lfemur -41.9519 -26.5883 -0.877864
ltibia 28.454
lfoot -24.4287 27.0036
ltoes -12.6647
783
root 9.45751 14.7871 -8.17921 -180.574 1.61579 -172.76
lowerback 9.09125 1.80415 2.03871
upperback -2.05209 2.52188 -4.6975
thorax -6.9821 1.12124 -6.52844
lowerneck -13.7057 -2.2271 -9.02665
upperneck 13.5131 -4.27859 15.6986
head 6.91781 -1.46779 6.21553
rclavicle 1.54058e-015 -2.54444e-014
rhumerus -36.9691 50.6023 -126.013
rradius 52.6899
rwrist 16.8478
rhand 8.2159 -52.8747
rfingers 7.12502
rthumb 33.4323 -439.783
lclavicle 1.54058e-015 -2.54444e-014
lhumerus -58.5787 -64.6085 146.956
lradius 104.05
lwrist 32.8403
lhand 17.2015 -26.0527
lfingers 7.12502
lthumb 41.9197 -1.43582
rfemur 14.0489 4.64675 39.1513
rtibia 18.5273
rfoot -18.5122 -11.1232
rtoes 5.13616
lfemur -41.3496 -26.6657 -1.36379
ltibia 28.2987
lfoot -25.4795 27.0215
ltoes -8.5247
784
root 9.44642 14.7873 -8.33145 -180.565 1.77987 -172.914
lowerback 8.949 1.84819 1.97918
upperback -2.12993 2.57477 -4.76135
thorax -6.977 1.14988 -6.56634
lowerneck -13.5997 -2.24025 -8.87156
upperneck 13.4249 -4.27066 15.4551
head 6.86095 -1.47569 6.10277
rclavicle 2.16303e-014 -9.54166e-015
rhumerus -37.2023 50.5444 -126.288
rradius 52.7136
rwrist 16.5364
rhand 7.43743 -52.8925
rfingers 7.12502
rthumb 32.692 -439.957
lclavicle 2.16303e-014 -9.54166e-015
lhumerus -58.6281 -63.2561 146.655
lradius 103.865
lwrist 32.0064
lhand 18.3582 -26.7391
lfingers 7.12502
lthumb 43.0027 -2.49416
rfemur 15.1707 4.60952 38.9277
rtibia 17.6394
rfoot -17.9703 -11.0202
rtoes 4.91353
lfemur -40.786 -25.6729 -2.33874
ltibia 28.3478
lfoot -23.2131 27.2469
ltoes -15.9443
785
root 9.43469 14.7821 -8.48943 -180.646 1.82009 -172.957
lowerback 8.99224 1.84955 1.97618
upperback -2.21293 2.57409 -4.75618
thorax -7.09118 1.14448 -6.56612
lowerneck -13.9007 -2.249 -9.20832
upperneck 13.6548 -4.27143 15.7158
head 7.0003 -1.45914 6.25938
rclavicle 1.89075e-014 -9.85972e-014
rhumerus -37.4588 50.5783 -126.557
rradius 52.7393
rwrist 15.9402
rhand 6.7676 -53.216
rfingers 7.12502
rthumb 32.0545 -440.411
lclavicle 1.89075e-014 -9.85972e-014
lhumerus -58.9456 -63.7075 147.067
lradius 103.973
lwrist 32.3774
lhand 17.4358 -26.2803
lfingers 7.12502
lthumb 42.1393 -1.73714
rfemur 16.4468 4.47294 38.8425
rtibia 16.6071
rfoot -17.1542 -10.8965
rtoes 4.00986
lfemur -40.105 -24.3969 -3.50041
ltibia 28.5566
lfoot -20.7945 27.2222
ltoes -22.792
786
root 9.42399 14.7721 -8.65125 -180.606 1.81824 -172.913
lowerback 8.78782 1.85392 2.00643
upperback -2.23276 2.58212 -4.71265
thorax -6.99437 1.14929 -6.52539
lowerneck -14.1538 -2.27645 -9.56004
upperneck 13.5985 -4.26502 16.0345
head 7.04184 -1.44032 6.43266
rclavicle 5.46037e-014 6.36111e-015
rhumerus -37.5862 50.8785 -126.688
rradius 52.6671
rwrist 15.7542
rhand 6.02051 -53.3034
rfingers 7.12502
rthumb 31.3429 -440.639
lclavicle 5.46037e-014 6.36111e-015
lhumerus -58.8553 -63.9824 147.053
lradius 104.068
lwrist 32.4796
lhand 17.029 -26.0075
lfingers 7.12502
lthumb 41.758 -1.33685
rfemur 17.5601 4.36928 38.8572
rtibia 15.6028
rfoot -16.4046 -10.6969
rtoes 3.81551
lfemur -39.4771 -22.8197 -4.68167
ltibia 28.8157
lfoot -17.6352 27.0749
ltoes -30.9681
787
root 9.41353 14.7646 -8.81073 -180.418 1.7222 -172.944
lowerback 8.50603 1.84509 2.03093
upperback -2.31348 2.57273 -4.74688
thorax -6.91768 1.14535 -6.56212
lowerneck -14.2431 -2.30681 -9.46179
upperneck 13.4318 -4.28288 15.9737
head 7.00466 -1.44468 6.38808
rclavicle -1.22004e-014 -4.13472e-014
rhumerus -37.6895 51.079 -126.785
rradius 52.6701
rwrist 15.5901
rhand 4.54044 -53.5448
rfingers 7.12502
rthumb 29.9315 -441.144
lclavicle -1.22004e-014 -4.13472e-014
lhumerus -58.8625 -63.1684 146.797
lradius 104.04
lwrist 31.6643
lhand 18.0979 -26.6514
lfingers 7.12502
lthumb 42.7592 -2.32087
rfemur 18.4254 4.30067 38.7864
rtibia 14.6819
rfoot -15.8473 -10.3955
rtoes 5.89472
lfemur -38.972 -20.8371 -6.08074
ltibia 29.1332
lfoot -17.6381 25.3817
ltoes -29.1712
788
root 9.39779 14.7591 -8.97684 -180.364 1.59083 -173.136
lowerback 8.34741 1.82413 2.00808
upperback -2.30666 2.546 -4.84337
thorax -6.81984 1.13822 -6.64021
lowerneck -14.6709 -2.40976 -9.22517
upperneck 13.4828 -4.38167 15.6624
head 7.09922 -1.47762 6.23155
rclavicle -1.2014e-014 7.31528e-014
rhumerus -37.542 50.9586 -126.599
rradius 52.8323
rwrist 15.5137
rhand 8.02077 -52.7911
rfingers 7.12502
rthumb 33.2468 -439.739
lclavicle -1.2014e-014 7.31528e-014
lhumerus -58.7202 -64.1864 146.895
lradius 104.166
lwrist 32.0542
lhand 17.6988 -26.4704
lfingers 7.12502
lthumb 42.3857 -2.01095
rfemur 19.5147 4.13983 38.5083
rtibia 13.6362
rfoot -15.1914 -10.134
rtoes 7.22619
lfemur -38.3467 -19.0314 -7.69685
ltibia 29.6163
lfoot -22.2232 22.0079
ltoes -7.66846
789
root 9.38409 14.7554 -9.15153 -180.391 1.60437 -173.232
lowerback 8.11064 1.85499 2.00944
upperback -2.36788 2.58991 -4.91369
thorax -6.74086 1.16288 -6.71166
lowerneck -14.6102 -2.47329 -9.12159
upperneck 13.3996 -4.44266 15.4736
head 7.06329 -1.51626 6.13901
rclavicle 4.11733e-014 3.18055e-015
rhumerus -37.9448 50.993 -127
rradius 52.9335
rwrist 14.8995
rhand 6.66138 -53.495
rfingers 7.12502
rthumb 31.9533 -440.71
lclavicle 4.11733e-014 3.18055e-015
lhumerus -58.7627 -64.2305 146.9
lradius 104.151
lwrist 32.1217
lhand 17.965 -26.5858
lfingers 7.12502
lthumb 42.6349 -2.21204
rfemur 20.96 4.10544 38.3686
rtibia 12.1393
rfoot -14.1161 -9.95948
rtoes 7.03813
lfemur -37.7009 -17.5253 -9.02297
ltibia 30.3429
lfoot -20.7703 21.5512
ltoes -12.0111
790
root 9.38016 14.752 -9.32341 -180.609 1.59203 -172.858
lowerback 8.19117 1.91116 2.37614
upperback -2.44636 2.69682 -4.85986
thorax -6.84434 1.19194 -6.88675
lowerneck -14.3148 -2.55831 -9.35186
upperneck 13.2339 -4.56217 15.723
head 6.98573 -1.58547 6.24684
rclavicle 5.54112e-015 2.22639e-014
rhumerus -38.8112 51.6371 -127.966
rradius 52.9235
rwrist 12.622
rhand 4.8923 -53.9712
rfingers 7.12502
rthumb 30.2672 -441.51
lclavicle 5.54112e-015 2.22639e-014
lhumerus -59.3827 -63.7974 147.366
lradius 104.049
lwrist 31.938
lhand 18.0944 -26.7327
lfingers 7.12502
lthumb 42.7559 -2.40109
rfemur 22.7245 4.12278 38.8755
rtibia 10.2357
rfoot -12.346 -9.97933
rtoes 6.27823
lfemur -37.0252 -16.1923 -9.65206
ltibia 31.1692
lfoot -19.2716 20.904
ltoes -15.3181
791
root 9.37518 14.7514 -9.49718 -180.967 1.5002 -172.257
lowerback 8.3233 1.89942 3.04681
upperback -2.32086 2.74459 -4.76046
thorax -6.7557 1.18631 -7.17198
lowerneck -14.5217 -2.58413 -9.64222
upperneck 13.2004 -4.62035 16.2116
head 7.04034 -1.5904 6.46061
rclavicle -1.51822e-014 -2.54444e-014
rhumerus -37.9974 51.4799 -127.303
rradius 52.6578
rwrist 13.8994
rhand 4.99391 -53.2751
rfingers 7.12502
rthumb 30.3642 -440.796
lclavicle -1.51822e-014 -2.54444e-014
lhumerus -59.2931 -63.684 147.235
lradius 103.96
lwrist 31.9315
lhand 18.1738 -26.6642
lfingers 7.12502
lthumb 42.8302 -2.35855
rfemur 24.6092 3.78092 39.5271
rtibia 8.29778
rfoot -10.1412 -9.73418
rtoes 4.25912
lfemur -36.3503 -15.2796 -9.79035
ltibia 31.8958
lfoot -17.7882 20.0365
ltoes -16.0602
792
root 9.36079 14.7643 -9.68077 -180.933 1.46611 -172.311
lowerback 7.94152 1.91545 3.12666
upperback -2.29631 2.77281 -4.83938
thorax -6.4996 1.20813 -7.28146
lowerneck -14.7354 -2.54712 -9.83365
upperneck 13.1565 -4.57253 16.5372
head 7.0713 -1.54784 6.61293
rclavicle 8.12532e-015 -7.63333e-014
rhumerus -37.8589 51.6024 -127.234
rradius 52.5907
rwrist 13.4131
rhand 6.19913 -53.4684
rfingers 7.12502
rthumb 31.513 -440.771
lclavicle 8.12532e-015 -7.63333e-014
lhumerus -58.8334 -63.448 146.804
lradius 103.776
lwrist 31.834
lhand 18.821 -26.8218
lfingers 7.12502
lthumb 43.4352 -2.7315
rfemur 26.0501 3.68345 39.3881
rtibia 6.62654
rfoot -8.09315 -9.3504
rtoes 2.27836
lfemur -36.0908 -15.0799 -10.2038
ltibia 32.4267
lfoot -16.79 19.8121
ltoes -14.7131
793
root 9.34157 14.7904 -9.86192 -180.61 1.39126 -172.975
lowerback 7.49487 1.88561 2.33521
upperback -2.53603 2.66316 -4.97758
thorax -6.54141 1.18957 -6.94773
lowerneck -14.4827 -2.43445 -9.82597
upperneck 12.8856 -4.39614 16.5406
head 6.91448 -1.47679 6.62303
rclavicle 8.19987e-015 -1.27222e-013
rhumerus -38.8823 51.9704 -128.097
rradius 52.7948
rwrist 11.755
rhand 4.19492 -53.8655
rfingers 7.12502
rthumb 29.6018 -441.524
lclavicle 8.19987e-015 -1.27222e-013
lhumerus -58.7859 -64.2148 147.073
lradius 104.095
lwrist 32.4292
lhand 17.7314 -25.939
lfingers 7.12502
lthumb 42.4162 -1.48989
rfemur 26.6012 3.68655 38.5537
rtibia 6.11724
rfoot -6.48354 -8.989
rtoes 1.07204
lfemur -36.0715 -15.2054 -11.0615
ltibia 32.7037
lfoot -16.1888 20.0163
ltoes -13.539
794
root 9.32457 14.8179 -10.0388 -180.475 1.31888 -173.513
lowerback 7.07115 1.86249 1.96882
upperback -2.77828 2.61502 -5.3052
thorax -6.56485 1.18707 -7.07504
lowerneck -14.2047 -2.54704 -9.08148
upperneck 13.1734 -4.63113 15.7687
head 6.9525 -1.61496 6.20472
rclavicle 3.32964e-014 -8.90555e-014
rhumerus -38.834 51.0261 -128.101
rradius 52.7917
rwrist 13.6518
rhand 7.34145 -53.7968
rfingers 7.12502
rthumb 32.6006 -440.88
lclavicle 3.32964e-014 -8.90555e-014
lhumerus -59.5314 -64.3791 147.6
lradius 104.23
lwrist 32.8397
lhand 17.0823 -25.5723
lfingers 7.12502
lthumb 41.808 -0.91823
rfemur 26.2316 3.61057 37.8848
rtibia 7.73734
rfoot -5.63468 -8.76278
rtoes -0.357926
lfemur -35.7039 -15.1162 -11.8693
ltibia 32.746
lfoot -14.131 20.0176
ltoes -17.3078
